<?xml version="1.0" encoding="utf-8"?>
<!-- Generator: Adobe Illustrator 27.0.0, SVG Export Plug-In . SVG Version: 6.00 Build 0)  -->
<svg version="1.1" id="Capa_1" xmlns="http://www.w3.org/2000/svg" xmlns:xlink="http://www.w3.org/1999/xlink" x="0px" y="0px"
	 viewBox="0 0 100 100" style="enable-background:new 0 0 100 100;" xml:space="preserve">
<style type="text/css">
	.st0{stroke:#000000;stroke-miterlimit:10;}
	.st1{fill:#FFE106;stroke:#000000;stroke-width:0.5;stroke-miterlimit:10;}
        @keyframes warning {
            from {
                transform: scale(.5);
                transform-origin: center;
                opacity:.4;
                
            }
            to {
                transform: scale(86px);
                transform-origin: center;
                opacity:1;

            }
        }
        #animacion {
            animation: warning 1.5s alternate infinite;
        }
</style>
<g id="animacion">
	<path class="st0" d="M49.9,75.7c-2.9,0-5.2-2.3-5.2-5.1s2.3-5.2,5.1-5.2s5.2,2.3,5.2,5.1c0,0,0,0,0,0.1
		C55,73.3,52.7,75.6,49.9,75.7z"/>
	<path class="st0" d="M49.9,61.8c-2.3,0-4.1-1.7-4.3-5.2L45,45.8c-0.1-2.6,2-4.8,4.6-4.9c0.1,0,0.2,0,0.3,0c2.7-0.1,5,2,5.1,4.7
		c0,0.1,0,0.1,0,0.2l-0.7,10.8C54.1,60,52.3,61.8,49.9,61.8z"/>
</g>
<path class="st1" d="M85.2,91.9H5.1c-2.4,0-3.9-1.2-3.9-3.3c0.1-0.8,0.3-1.5,0.7-2.2l1.6-2.8h77L85.2,91.9z"/>
<path class="st1" d="M55.2,10.9l-2.6-4c-0.6-1.1-1.6-1.8-2.8-1.9c-1.2,0-2.3,0.8-2.8,1.9L6.3,78.6h11.5L55.2,10.9z"/>
<path class="st1" d="M52.3,26.3l38.3,65.6h4.6c1.8,0.2,3.4-1.1,3.6-2.9c0-0.2,0-0.3,0-0.5c0-0.7-0.2-1.4-0.5-2L57.9,16.3L52.3,26.3z
	"/>
</svg>
